<?xml version="1.0" encoding="UTF-8" standalone="no"?>
<!-- Created with Inkscape (http://www.inkscape.org/) -->

<svg
   width="48"
   height="48"
   viewBox="0 0 48 48"
   version="1.1"
   id="svg1"
   xml:space="preserve"
   xmlns:xlink="http://www.w3.org/1999/xlink"
   xmlns="http://www.w3.org/2000/svg"
   xmlns:svg="http://www.w3.org/2000/svg"><defs
     id="defs1"><linearGradient
       id="swatch4"><stop
         style="stop-color:#fffd14;stop-opacity:1;"
         offset="0"
         id="stop4" /></linearGradient><filter
       style="color-interpolation-filters:sRGB"
       id="filter1"
       x="-0.090650341"
       y="-0.098652388"
       width="1.1814074"
       height="1.1973227"><feGaussianBlur
         stdDeviation="0.78484211"
         id="feGaussianBlur1" /></filter><filter
       style="color-interpolation-filters:sRGB"
       id="filter2"
       x="-0.032440137"
       y="-0.035296619"
       width="1.0649383"
       height="1.0706034"><feGaussianBlur
         stdDeviation="0.12502345"
         id="feGaussianBlur2" /></filter><filter
       style="color-interpolation-filters:sRGB"
       id="filter4"
       x="-0.01433561"
       y="-0.015596823"
       width="1.0286976"
       height="1.0311987"><feGaussianBlur
         stdDeviation="0.031027393"
         id="feGaussianBlur4" /></filter></defs><use
     x="0"
     y="0"
     xlink:href="#g1"
     id="use1"
     style="fill:none;stroke:#ff2a2a;stroke-width:3.5;stroke-linecap:round;stroke-linejoin:round;stroke-dasharray:none;stroke-opacity:1;filter:url(#filter1)" /><use
     x="0"
     y="0"
     xlink:href="#g1"
     id="use2"
     style="mix-blend-mode:normal;stroke:#ff5555;stroke-width:2;stroke-linecap:round;stroke-linejoin:round;stroke-dasharray:none;filter:url(#filter2)" /><use
     x="0"
     y="0"
     xlink:href="#g1"
     id="use3"
     style="mix-blend-mode:normal;stroke:#ffaaaa;stroke-linecap:round;stroke-linejoin:round;filter:url(#filter4)" /><use
     x="0"
     y="0"
     xlink:href="#g1"
     id="use4"
     style="stroke:#ffffff;stroke-width:0.8;stroke-linecap:round;stroke-linejoin:round;stroke-dasharray:none" /><g
     id="g1"><path
       id="path7"
       style="opacity:1;fill:none;fill-opacity:1"
       d="m 32.384616,5.5843163 c -0.261668,0.00789 -0.519153,0.073407 -0.771484,0.1464843 -2.228437,0.6453717 -4.262694,1.9471978 -5.78125,3.7011719 -1.518554,1.7539745 -2.51618,3.9540865 -2.835937,6.2519525 1.889894,-3.35091 4.984479,-6.00539 8.583984,-7.3632806 0.547507,-0.2065437 1.128247,-0.3977341 1.539062,-0.8144531 0.205408,-0.2083596 0.35991,-0.4728271 0.40625,-0.7617188 0.02317,-0.144446 0.01881,-0.2938519 -0.01758,-0.4355469 -0.03639,-0.1416949 -0.103722,-0.2756562 -0.201172,-0.3847656 -0.1,-0.1119597 -0.229628,-0.1965392 -0.36914,-0.2519531 -0.139512,-0.055414 -0.289439,-0.082451 -0.439453,-0.087891 -0.0375,-0.00136 -0.0759,-0.00113 -0.113282,0 z M 43.051421,9.074035 c -1.158502,6.27e-5 -2.320239,0.119548 -3.462891,0.2871094 -4.412215,0.6470196 -12.905582,2.3904366 -15.220703,6.9160156 3.350638,-0.483196 5.972177,0.01036 9.402344,-0.589844 2.119381,-0.370841 4.112643,-1.060315 6.037109,-2.013672 0.901864,-0.446772 1.768212,-0.946667 2.605469,-1.505859 0.399912,-0.267104 2.932852,-2.5338557 2.894531,-3.0039063 -0.0034,-0.04178 -1.059548,-0.043841 -1.099609,-0.046875 -0.384722,-0.029103 -0.770083,-0.04299 -1.15625,-0.042969 z m -25.160945,5.861843 c -0.268804,-0.0059 -0.53802,-0.0028 -0.806641,0.0098 -2.148969,0.100824 -4.26609,0.795737 -6.05664,1.988281 -3.0665369,2.042377 -5.0695852,5.500116 -5.6367189,9.140625 -0.5671338,3.64051 0.2334514,7.426602 1.9335937,10.695313 0.6533152,1.256069 1.4474441,2.457726 2.4824215,3.423828 1.0349777,0.966102 2.3271637,1.688768 3.7285157,1.890625 1.29598,0.186679 2.611765,-0.07487 3.886719,-0.373047 1.274954,-0.298171 2.56016,-0.636783 3.86914,-0.605469 1.955665,0.04678 3.797847,0.912896 5.732422,1.203125 1.738859,0.260867 3.547892,0.04433 5.173828,-0.625 1.999089,-0.822948 3.690108,-2.314151 4.900391,-4.105469 1.210282,-1.791317 1.953836,-3.873009 2.318359,-6.003906 0.406546,-2.376547 0.349109,-4.848338 -0.308593,-7.167969 -0.657703,-2.319629 -1.929542,-4.48138 -3.734375,-6.080078 -1.609622,-1.425781 -3.627752,-2.384352 -5.75,-2.730468 -2.122249,-0.346117 -4.341088,-0.07876 -6.320313,0.761718 -1.657547,-0.892202 -3.530481,-1.380922 -5.412109,-1.421875 z" /></g></svg>
