<?xml version="1.0" encoding="UTF-8" standalone="no"?>
<!-- Created with Inkscape (http://www.inkscape.org/) -->

<svg
   width="48"
   height="48"
   viewBox="0 0 48 48"
   version="1.1"
   id="svg1"
   xml:space="preserve"
   xmlns:xlink="http://www.w3.org/1999/xlink"
   xmlns="http://www.w3.org/2000/svg"
   xmlns:svg="http://www.w3.org/2000/svg"><defs
     id="defs1"><linearGradient
       id="swatch4"><stop
         style="stop-color:#fffd14;stop-opacity:1;"
         offset="0"
         id="stop4" /></linearGradient><filter
       style="color-interpolation-filters:sRGB"
       id="filter1"
       x="-0.088097139"
       y="-0.097287693"
       width="1.1762802"
       height="1.1947471"><feGaussianBlur
         stdDeviation="0.78484211"
         id="feGaussianBlur1" /></filter><filter
       style="color-interpolation-filters:sRGB"
       id="filter2"
       x="-0.031522141"
       y="-0.034681211"
       width="1.0630935"
       height="1.0694601"><feGaussianBlur
         stdDeviation="0.12502345"
         id="feGaussianBlur2" /></filter><filter
       style="color-interpolation-filters:sRGB"
       id="filter4"
       x="-0.013929221"
       y="-0.015304989"
       width="1.0278831"
       height="1.0306586"><feGaussianBlur
         stdDeviation="0.031027393"
         id="feGaussianBlur4" /></filter></defs><use
     x="0"
     y="0"
     xlink:href="#g1"
     id="use1"
     style="fill:none;stroke:#ffcc00;stroke-width:3.5;stroke-linecap:round;stroke-linejoin:round;stroke-dasharray:none;stroke-opacity:1;filter:url(#filter1)" /><use
     x="0"
     y="0"
     xlink:href="#g1"
     id="use2"
     style="mix-blend-mode:normal;stroke:#ffd42a;stroke-width:2;stroke-linecap:round;stroke-linejoin:round;stroke-dasharray:none;filter:url(#filter2)" /><use
     x="0"
     y="0"
     xlink:href="#g1"
     id="use3"
     style="mix-blend-mode:normal;stroke:#ffe680;stroke-linecap:round;stroke-linejoin:round;filter:url(#filter4)" /><use
     x="0"
     y="0"
     xlink:href="#g1"
     id="use4"
     style="stroke:#fff6d5;stroke-width:0.8;stroke-linecap:round;stroke-linejoin:round;stroke-dasharray:none" /><g
     id="g1"><path
       style="opacity:1;fill:none;fill-opacity:1"
       d="M 16.273466,40.911241 C 12.25133,41.961275 8.2291098,40.13271 10.311548,37.55222 c 8.665176,-6.5277 10.018742,-8.350212 15.914104,-19.768985 0.578598,-1.132968 1.061625,-1.849322 1.843977,-2.838625 1.034483,-1.308131 1.5808,-2.316254 3.481471,-3.196629 -0.916409,1.566238 -2.875044,6.596831 -3.02701,7.04405 -2.120311,6.753172 -4.017184,13.722712 -8.990546,19.149942 -0.589734,0.698538 -2.44006,1.993752 -2.616002,2.832121 0.21502,2.094529 1.632208,3.271804 3.807493,2.474319 13.365702,-3.513079 17.027101,-20.761132 12.283672,-32.651477 3.514933,-0.642341 5.699218,-1.5393556 9.059412,0.202836 1.490385,0.892142 1.782194,-0.150155 2.827897,-1.5077509 0.08782,-0.1422556 -1.912309,-2.1797732 -2.200219,-2.2616842 -3.200694,-0.9106067 -5.813959,-0.9478811 -8.64691,0.380441 -0.891995,0.4182407 -2.129421,2.276604 -2.868242,3.0006831 -2.790221,1.283979 -5.783649,4.646264 -8.855908,9.278745 C 13.036533,32.82083 9.210967,33.050897 4.5880622,36.403303 1.8852093,38.588134 5.4871484,38.374014 9.3618234,38.92345"
       id="path84" /></g></svg>
