<?xml version="1.0" encoding="UTF-8" standalone="no"?>
<!-- Created with Inkscape (http://www.inkscape.org/) -->

<svg
   width="48"
   height="48"
   viewBox="0 0 48 48"
   version="1.1"
   id="svg1"
   xml:space="preserve"
   xmlns:xlink="http://www.w3.org/1999/xlink"
   xmlns="http://www.w3.org/2000/svg"
   xmlns:svg="http://www.w3.org/2000/svg"><defs
     id="defs1"><linearGradient
       id="swatch4"><stop
         style="stop-color:#fffd14;stop-opacity:1;"
         offset="0"
         id="stop4" /></linearGradient><filter
       style="color-interpolation-filters:sRGB"
       id="filter1"
       x="-0.10026682"
       y="-0.092179284"
       width="1.2004982"
       height="1.1843777"><feGaussianBlur
         stdDeviation="0.78484211"
         id="feGaussianBlur1" /></filter></defs><use
     x="0"
     y="0"
     xlink:href="#g1"
     id="use1"
     style="fill:none;stroke:#ff0066;stroke-width:3.5;stroke-linecap:round;stroke-linejoin:round;stroke-dasharray:none;stroke-opacity:1;filter:url(#filter1)" /><use
     x="0"
     y="0"
     xlink:href="#g1"
     id="use3"
     style="mix-blend-mode:normal;stroke:#ff5599;stroke-width:1.8;stroke-linecap:round;stroke-linejoin:round;stroke-dasharray:none" /><use
     x="0"
     y="0"
     xlink:href="#g1"
     id="use4"
     style="stroke:#ffffff;stroke-width:0.8;stroke-linecap:round;stroke-linejoin:round;stroke-dasharray:none" /><g
     id="g1"
     transform="translate(1.0610486,0.98609102)"><path
       id="path7"
       style="opacity:1;fill:none;fill-opacity:1"
       d="m 32.766255,3.3047088 c -0.261668,0.00789 -0.519153,0.073408 -0.771484,0.1464842 -2.228436,0.6453718 -4.262696,1.9471977 -5.78125,3.701172 -1.518555,1.753974 -2.51618,3.954087 -2.835938,6.251953 1.889895,-3.350911 4.98448,-6.0053906 8.583985,-7.3632812 C 32.509075,5.8344934 33.089815,5.6433028 33.50063,5.2265839 33.706038,5.0182243 33.860538,4.7537567 33.90688,4.464865 33.93005,4.3204189 33.92569,4.1710132 33.8893,4.0293183 33.85291,3.8876231 33.785579,3.7536618 33.688128,3.6445524 c -0.1,-0.1119597 -0.229629,-0.1965386 -0.36914,-0.2519531 -0.139512,-0.055414 -0.289438,-0.08245 -0.439453,-0.08789 -0.0375,-0.00136 -0.0759,-0.00113 -0.113282,0 z m -8.734374,10.0898432 -0.08008,0.13086 c 0.0623,-0.0044 0.126586,-0.0019 0.189453,-0.0039 -0.03688,-0.04163 -0.072,-0.08588 -0.109374,-0.126953 z m 0.109374,0.126953 c 2.254544,2.545238 3.60009,6.112259 5.871094,8.677735 1.426125,1.611045 3.056742,2.948028 4.876953,4.08789 0.853007,0.534178 1.733514,1.009435 2.648438,1.429688 0.437014,0.200727 3.693899,1.171458 4.074219,0.892578 0.03381,-0.02477 -0.514799,-0.925226 -0.533203,-0.960937 C 40.371765,26.276634 39.438261,25.022545 38.449849,23.841818 35.623668,20.465754 29.03572,13.364373 24.141255,13.521505 Z m -0.214844,0.140625 c 0,0.02291 -0.911232,0.220868 -1.023437,0.267578 -5.73761,2.792384 -8.944356,8.96906 -9.617187,15.177735 l 0.501953,0.06836 c -0.127685,0.03596 -0.254365,0.07661 -0.378907,0.121094 -0.820631,-0.382251 -1.745242,-0.570287 -2.662109,-0.53125 -0.9868109,0.04202 -1.9593871,0.343931 -2.7773436,0.859375 -1.4022997,0.883674 -2.3002443,2.376956 -2.5371094,3.9375 -0.2368651,1.560544 0.1535166,3.173317 0.9375,4.570312 0.2919004,0.520144 0.640636,1.019535 1.097656,1.423829 0.4570203,0.404294 1.0293556,0.710118 1.6523442,0.800781 0.5934323,0.08636 1.1986598,-0.02379 1.7832028,-0.152344 0.584543,-0.128557 1.172929,-0.277528 1.773438,-0.265625 0.896917,0.01778 1.741755,0.389554 2.628906,0.513672 0.797323,0.11155 1.625159,0.01725 2.371094,-0.267578 0.91788,-0.350478 1.697048,-0.983898 2.253906,-1.748047 0.556857,-0.764149 0.897526,-1.655063 1.056641,-2.566406 0.169021,-0.968083 0.136705,-1.970302 -0.142578,-2.916016 -0.279284,-0.945714 -0.808295,-1.832723 -1.558594,-2.521484 -0.252326,-0.23163 -0.53267,-0.435114 -0.828125,-0.617188 l 8.623047,1.179688 c -0.956519,0.05564 -1.895828,0.353402 -2.689454,0.853515 -1.402296,0.883676 -2.300246,2.376958 -2.537109,3.9375 -0.236864,1.560543 0.153525,3.173315 0.9375,4.570313 0.291898,0.520145 0.640636,1.01758 1.097656,1.421875 0.45702,0.404296 1.029353,0.712079 1.652344,0.802734 0.593433,0.08636 1.198661,-0.02378 1.783203,-0.152343 0.584542,-0.128562 1.17293,-0.277555 1.773437,-0.265625 0.896916,0.01782 1.741737,0.389678 2.628907,0.513672 0.797316,0.111435 1.625022,0.01687 2.371094,-0.267579 0.918352,-0.350136 1.700284,-0.982034 2.257812,-1.746093 0.557528,-0.76406 0.896585,-1.656293 1.052735,-2.56836 0.16562,-0.967391 0.126723,-1.968071 -0.154297,-2.912109 -0.281021,-0.944039 -0.806205,-1.82933 -1.546875,-2.525391 -0.81881,-0.769494 -1.896314,-1.297371 -3.041016,-1.492187 -0.891495,-0.151723 -1.81981,-0.09815 -2.6875,0.144531 -2.304222,-3.326024 -6.490773,-10.280507 -6.236328,-16.595703 0.0323,-0.322863 0.09652,-0.619782 0.160156,-0.929688 0.0084,-0.04094 0.02344,-0.164846 0.02344,-0.123047 z m 5.357422,17.636719 0.503907,0.06836 c -0.05812,0.01835 -0.116381,0.03655 -0.173828,0.05664 -0.108413,-0.04493 -0.218711,-0.08682 -0.330079,-0.125 z" /></g><g
     id="layer1"
     transform="translate(-2.4583559,-17.039999)"><g
       id="g81" /></g></svg>
