<?xml version="1.0" encoding="UTF-8" standalone="no"?>
<!-- Created with Inkscape (http://www.inkscape.org/) -->

<svg
   width="48"
   height="48"
   viewBox="0 0 48 48"
   version="1.1"
   id="svg1"
   xmlns:xlink="http://www.w3.org/1999/xlink"
   xmlns="http://www.w3.org/2000/svg"
   xmlns:svg="http://www.w3.org/2000/svg">
  <defs
     id="defs1">
    <linearGradient
       id="linearGradient83">
      <stop
         style="stop-color:#e70000;stop-opacity:1;"
         offset="0.34274906"
         id="stop83" />
      <stop
         style="stop-color:#ba41fd;stop-opacity:1;"
         offset="1"
         id="stop84" />
    </linearGradient>
    <filter
       style="color-interpolation-filters:sRGB"
       id="filter81"
       x="-0.041939206"
       y="-0.045391979"
       width="1.083799"
       height="1.0907888">
      <feGaussianBlur
         stdDeviation="0.42575828"
         id="feGaussianBlur81" />
    </filter>
    <filter
       style="color-interpolation-filters:sRGB"
       id="filter82"
       x="-0.14486481"
       y="-0.15681311"
       width="1.2896502"
       height="1.3136311">
      <feGaussianBlur
         stdDeviation="1.7099668"
         id="feGaussianBlur82" />
    </filter>
    <filter
       style="color-interpolation-filters:sRGB"
       id="filter83"
       x="-0.43003263"
       y="-0.46551882"
       width="1.8599858"
       height="1.9310425">
      <feGaussianBlur
         stdDeviation="4.7376697"
         id="feGaussianBlur83" />
    </filter>
    <linearGradient
       xlink:href="#linearGradient83"
       id="linearGradient84"
       x1="-7.0866532"
       y1="22.441263"
       x2="57.291803"
       y2="22.441263"
       gradientUnits="userSpaceOnUse"
       gradientTransform="translate(-17.988841,11.267419)" />
  </defs>
  <g
     id="layer1">
    <rect
       style="opacity:1;fill:#000000;fill-opacity:1;stroke:#000000;stroke-width:1;stroke-linejoin:miter;stroke-dasharray:none;stroke-opacity:1"
       id="rect81"
       width="63.378456"
       height="65.110596"
       x="-6.5866532"
       y="-10.114035" />
    <use
       x="0"
       y="0"
       xlink:href="#use82"
       id="use83"
       style="filter:url(#filter83)" />
    <use
       x="0"
       y="0"
       xlink:href="#use81"
       id="use82"
       style="filter:url(#filter82)" />
    <use
       x="0"
       y="0"
       xlink:href="#g81"
       id="use81"
       style="filter:url(#filter81);stroke-width:1;stroke-dasharray:none" />
    <g
       id="g81">
      <path
         style="opacity:1;fill:none;fill-opacity:1;stroke:#ffffff;stroke-width:2.93868;stroke-dasharray:none;stroke-opacity:1"
         d="m 24.1615,13.964841 c -1.886546,-1.039918 -4.062961,-1.547292 -6.214889,-1.448838 -2.151928,0.09845 -4.272922,0.802438 -6.056631,2.010274 -3.0579792,2.070706 -5.0148273,5.572272 -5.5313564,9.229082 -0.5165291,3.656809 0.3321069,7.434996 2.0417309,10.708564 0.6365441,1.218847 1.3993271,2.387485 2.3959455,3.334864 0.996619,0.947379 2.243414,1.665977 3.601958,1.878427 1.294091,0.202371 2.612638,-0.05735 3.887344,-0.3586 1.274707,-0.301247 2.559009,-0.64753 3.868531,-0.619637 1.955897,0.04166 3.797007,0.91157 5.731608,1.202413 1.738713,0.261394 3.546905,0.0419 5.173556,-0.625524 2.001612,-0.821272 3.700884,-2.305459 4.915217,-4.096083 1.214332,-1.790624 1.95701,-3.8777 2.30399,-6.013243 0.368583,-2.2685 0.296844,-4.618676 -0.312185,-6.83476 -0.60903,-2.216084 -1.764099,-4.293415 -3.400269,-5.907383 -1.749723,-1.725981 -4.038596,-2.897406 -6.461948,-3.30717 -2.423352,-0.409763 -4.97012,-0.05599 -7.190036,0.998764"
         id="path7"
         transform="matrix(0.45857114,0,0,0.42675049,2.9979615,23.297196)" />
      <path
         style="opacity:1;fill:none;fill-opacity:1;stroke:#ffffff;stroke-width:1.3;stroke-dasharray:none;stroke-opacity:1"
         d="m 23.858683,13.276228 c 0.319758,-2.297868 1.317578,-4.4971715 2.836134,-6.2511474 1.518557,-1.7539759 3.55239,-3.0563196 5.780829,-3.7016919 0.288379,-0.083517 0.584753,-0.1568531 0.884785,-0.1459726 0.150015,0.00544 0.299969,0.0323 0.439481,0.087714 0.139512,0.055414 0.268427,0.1399545 0.368424,0.2519143 0.09745,0.1091095 0.166116,0.2429749 0.202503,0.38467 0.03639,0.1416951 0.04083,0.2909988 0.01766,0.4354449 -0.04634,0.288892 -0.202023,0.5532686 -0.407431,0.7616284 -0.410816,0.4167195 -0.99088,0.6075511 -1.538388,0.814095 -3.599508,1.357892 -6.694103,4.0124318 -8.583999,7.3633455 z"
         id="path8" />
      <path
         style="opacity:1;fill:none;fill-opacity:1;stroke:#ffffff;stroke-width:1.3;stroke-linejoin:miter;stroke-dasharray:none;stroke-opacity:1"
         d="m 24.514012,13.267355 c 2.322212,2.552284 3.672234,6.196277 5.980385,8.803716 1.426126,1.611047 3.056493,2.948031 4.876706,4.087895 0.853008,0.534178 1.7338,1.010501 2.648725,1.430754 0.437015,0.200727 3.693658,1.171455 4.073978,0.892575 0.03381,-0.02477 -0.516204,-0.926637 -0.534609,-0.962348 -0.706991,-1.371826 -1.639765,-2.625894 -2.628178,-3.806622 -2.862485,-3.419431 -9.585173,-10.665792 -14.497505,-10.31581"
         id="path9" />
      <path
         style="opacity:1;fill:none;fill-opacity:1;stroke:#ffffff;stroke-width:2.93868;stroke-dasharray:none;stroke-opacity:1"
         d="m 24.1615,13.964841 c -1.886545,-1.039921 -4.062961,-1.547297 -6.214889,-1.448844 -2.151929,0.09845 -4.272923,0.802441 -6.056631,2.01028 -3.0579733,2.070709 -5.014811,5.572277 -5.5313367,9.229084 -0.5165256,3.656807 0.3321055,7.434988 2.0417112,10.708562 0.6365388,1.218852 1.3993157,2.387497 2.3959345,3.334879 0.996618,0.947383 2.24342,1.66598 3.601969,1.878412 1.294094,0.202354 2.612636,-0.0574 3.88734,-0.358658 1.274704,-0.301258 2.559014,-0.647532 3.868535,-0.619579 1.955894,0.04175 3.796965,0.91186 5.731608,1.202413 1.738699,0.261126 3.546605,0.04103 5.173556,-0.625524 2.002641,-0.820471 3.704545,-2.302563 4.920341,-4.092978 1.215796,-1.790415 1.958353,-3.879108 2.298866,-6.016348 0.361168,-2.26688 0.276251,-4.61343 -0.336567,-6.825588 -0.612819,-2.212157 -1.760715,-4.28548 -3.375887,-5.916555 -1.78557,-1.80315 -4.13292,-3.04193 -6.629159,-3.498441 -2.496238,-0.456511 -5.130088,-0.128691 -7.438261,0.925796"
         id="path1"
         transform="matrix(0.45857114,0,0,0.42675049,19.419931,25.521587)" />
      <path
         style="fill:none;stroke:#ffffff;stroke-width:1.3;stroke-dasharray:none"
         d="m 13.767581,28.978854 c 0.672832,-6.208681 3.878185,-12.385659 9.615801,-15.178045 0.112205,-0.04671 1.023882,-0.244224 1.023882,-0.267138 0,-0.0418 -0.01379,0.08248 -0.0222,0.123423 -0.06364,0.309906 -0.127877,0.606424 -0.160177,0.929287 -0.2567,6.371169 4.009318,13.398566 6.299756,16.68875"
         id="path2" />
    </g>
    <rect
       style="display:inline;opacity:1;mix-blend-mode:overlay;fill:url(#linearGradient84);stroke:none;stroke-width:1;stroke-linejoin:miter;stroke-dasharray:none;stroke-opacity:1"
       id="rect83"
       width="63.378456"
       height="65.110596"
       x="-24.575493"
       y="1.1533833"
       transform="rotate(-31.890818)" />
  </g>
</svg>
