<?xml version="1.0" encoding="UTF-8" standalone="no"?>
<!-- Created with Inkscape (http://www.inkscape.org/) -->

<svg
   width="48"
   height="48"
   viewBox="0 0 48 48"
   version="1.1"
   id="svg1"
   xml:space="preserve"
   xmlns:xlink="http://www.w3.org/1999/xlink"
   xmlns="http://www.w3.org/2000/svg"
   xmlns:svg="http://www.w3.org/2000/svg"><defs
     id="defs1"><linearGradient
       id="swatch4"><stop
         style="stop-color:#fffd14;stop-opacity:1;"
         offset="0"
         id="stop4" /></linearGradient><filter
       style="color-interpolation-filters:sRGB"
       id="filter1"
       x="-0.096103207"
       y="-0.084290027"
       width="1.1928271"
       height="1.1688433"><feGaussianBlur
         stdDeviation="0.75677449"
         id="feGaussianBlur1" /></filter><filter
       style="color-interpolation-filters:sRGB"
       id="filter2"
       x="-0.032748239"
       y="-0.030360199"
       width="1.0658505"
       height="1.0608709"><feGaussianBlur
         stdDeviation="0.12108392"
         id="feGaussianBlur2" /></filter><filter
       style="color-interpolation-filters:sRGB"
       id="filter4"
       x="-0.014272679"
       y="-0.013492243"
       width="1.0287222"
       height="1.0270597"><feGaussianBlur
         stdDeviation="0.031027393"
         id="feGaussianBlur4" /></filter><filter
       style="color-interpolation-filters:sRGB"
       id="filter5"
       x="-0.097667027"
       y="-0.083422741"
       width="1.1954152"
       height="1.1668269"><feGaussianBlur
         stdDeviation="0.64046885"
         id="feGaussianBlur5" /></filter><filter
       style="color-interpolation-filters:sRGB"
       id="filter8"
       x="-0.026424607"
       y="-0.025393939"
       width="1.0528962"
       height="1.0507766"><feGaussianBlur
         stdDeviation="0.022653748"
         id="feGaussianBlur8" /></filter><filter
       style="color-interpolation-filters:sRGB"
       id="filter29"
       x="-0.027990916"
       y="-0.025116745"
       width="1.0560158"
       height="1.0502253"><feGaussianBlur
         stdDeviation="0.11906512"
         id="feGaussianBlur29" /></filter><filter
       style="color-interpolation-filters:sRGB"
       id="filter1-0"
       x="-0.096103206"
       y="-0.084290028"
       width="1.1928271"
       height="1.1688433"><feGaussianBlur
         stdDeviation="0.75677449"
         id="feGaussianBlur1-6" /></filter><filter
       style="color-interpolation-filters:sRGB"
       id="filter2-1"
       x="-0.032748237"
       y="-0.0303602"
       width="1.0658505"
       height="1.0608709"><feGaussianBlur
         stdDeviation="0.12108392"
         id="feGaussianBlur2-5" /></filter><filter
       style="color-interpolation-filters:sRGB"
       id="filter4-5"
       x="-0.014272679"
       y="-0.013492243"
       width="1.0287222"
       height="1.0270597"><feGaussianBlur
         stdDeviation="0.031027393"
         id="feGaussianBlur4-4" /></filter><filter
       style="color-interpolation-filters:sRGB"
       id="filter34"
       x="-0.089479132"
       y="-0.075429363"
       width="1.1790236"
       height="1.1508434"><feGaussianBlur
         stdDeviation="0.64007061"
         id="feGaussianBlur34" /></filter><filter
       style="color-interpolation-filters:sRGB"
       id="filter37"
       x="-0.027911119"
       y="-0.025349815"
       width="1.0558588"
       height="1.0506908"><feGaussianBlur
         stdDeviation="0.10247502"
         id="feGaussianBlur37" /></filter></defs><use
     x="0"
     y="0"
     xlink:href="#g1"
     id="use1"
     style="mix-blend-mode:normal;fill:none;stroke:#55ff55;stroke-width:3.5;stroke-linecap:round;stroke-linejoin:round;stroke-dasharray:none;stroke-opacity:1;filter:url(#filter1)" /><use
     x="0"
     y="0"
     xlink:href="#g1"
     id="use2"
     style="mix-blend-mode:normal;stroke:#55ff55;stroke-width:2;stroke-linecap:round;stroke-linejoin:round;stroke-dasharray:none;filter:url(#filter2)" /><use
     x="0"
     y="0"
     xlink:href="#g1"
     id="use4"
     style="stroke:#ffffff;stroke-width:0.4;stroke-linecap:round;stroke-linejoin:round;stroke-dasharray:none" /><g
     id="g1"
     transform="translate(2.1685218,2.4675674)"><path
       style="mix-blend-mode:normal;fill:none"
       d="m 5.5596082,41.599473 c -1.1106108,1.418948 -2.2212223,2.837897 -0.897371,3.615941 1.3238512,0.778044 5.0821645,0.915185 8.0394628,0.949727 2.957299,0.03454 5.113583,-0.03351 8.030685,-0.268705 2.917101,-0.235194 6.513538,-0.628612 10.93919,-2.276526 4.425653,-1.647914 9.212188,-4.359505 11.745714,-10.630264 2.533525,-6.27076 2.534366,-15.499086 1.446646,-21.151615 -1.087721,-5.6525286 -3.209796,-7.2858458 -4.64243,-7.8339076 -1.432634,-0.5480618 -2.148687,0.010019 -2.864741,0.5681007"
       id="path3"
       transform="matrix(0.81237279,0,0,0.98994797,1.7825795,-3.5080157)" /></g><use
     x="0"
     y="0"
     xlink:href="#use29"
     id="use31"
     style="stroke-width:2.5;stroke-dasharray:none;stroke:#ff2a2a;filter:url(#filter34);stroke-linejoin:round;stroke-linecap:round" /><use
     x="0"
     y="0"
     xlink:href="#use29"
     id="use36"
     style="filter:url(#filter37);stroke:#ff8080;stroke-width:1.4;stroke-dasharray:none;stroke-linejoin:round;stroke-linecap:round" /><use
     x="0"
     y="0"
     xlink:href="#use29"
     id="use37"
     style="stroke:#f9f9f9;stroke-width:0.4;stroke-dasharray:none;stroke-linejoin:round;stroke-linecap:round" /><g
     id="use29"
     transform="translate(9.8520808,10.631544)"><path
       id="path31"
       style="fill:none"
       transform="matrix(0.75215663,0,0,0.96638039,7.4409454,-28.804465)"
       d="m 16.324168,33.836765 c 1.313192,0.93402 2.626384,1.86804 3.939575,2.80206 m -3.105096,5.479638 c 1.313191,0.93402 2.626383,1.86804 3.939575,2.80206 M 8.1576521,44.278128 c 1.313192,0.93402 2.6263829,1.86804 3.9395749,2.80206 m -1.472011,4.889722 c 1.313191,0.93402 2.626383,1.86804 3.939575,2.80206 m -15.15725382,0.178688 c 0,0 3.93957502,2.80206 3.93957502,2.80206 M -9.8928137,58.0331 C -0.00766582,46.579206 9.8774822,35.125312 16.099518,29.221164 22.321554,23.317017 24.880479,22.962616 26.174732,29.020099 27.468984,35.077581 27.498564,47.546945 22.3309,54.312188 17.163236,61.07743 6.7983312,62.138549 0.77536618,62.257893 -5.2475978,62.377238 -6.928619,61.554808 -8.60964,60.732379 M 16.324168,33.836765 c 1.313192,0.93402 2.626384,1.86804 3.939575,2.80206 m -3.105096,5.479638 c 1.313191,0.93402 2.626383,1.86804 3.939575,2.80206 M 8.1576521,44.278128 c 1.313192,0.93402 2.6263829,1.86804 3.9395749,2.80206 m -1.472011,4.889722 c 1.313191,0.93402 2.626383,1.86804 3.939575,2.80206 m -15.15725382,0.178688 c 0,0 3.93957502,2.80206 3.93957502,2.80206 M -9.8928137,58.0331 C -0.00766582,46.579206 9.8774822,35.125312 16.099518,29.221164 22.321554,23.317017 24.880479,22.962616 26.174732,29.020099 27.468984,35.077581 27.498564,47.546945 22.3309,54.312188 17.163236,61.07743 6.7983312,62.138549 0.77536618,62.257893 -5.2475978,62.377238 -6.928619,61.554808 -8.60964,60.732379 M 16.324168,33.836765 c 1.313192,0.93402 2.626384,1.86804 3.939575,2.80206 m -3.105096,5.479638 c 1.313191,0.93402 2.626383,1.86804 3.939575,2.80206 M 8.1576521,44.278128 c 1.313192,0.93402 2.6263829,1.86804 3.9395749,2.80206 m -1.472011,4.889722 c 1.313191,0.93402 2.626383,1.86804 3.939575,2.80206 m -15.15725382,0.178688 c 0,0 3.93957502,2.80206 3.93957502,2.80206 M -9.8928137,58.0331 C -0.00766582,46.579206 9.8774822,35.125312 16.099518,29.221164 22.321554,23.317017 24.880479,22.962616 26.174732,29.020099 27.468984,35.077581 27.498564,47.546945 22.3309,54.312188 17.163236,61.07743 6.7983312,62.138549 0.77536618,62.257893 -5.2475978,62.377238 -6.928619,61.554808 -8.60964,60.732379 M 16.324168,33.836765 c 1.313192,0.93402 2.626384,1.86804 3.939575,2.80206 m -3.105096,5.479638 c 1.313191,0.93402 2.626383,1.86804 3.939575,2.80206 M 8.1576521,44.278128 c 1.313192,0.93402 2.6263829,1.86804 3.9395749,2.80206 m -1.472011,4.889722 c 1.313191,0.93402 2.626383,1.86804 3.939575,2.80206 m -15.15725382,0.178688 c 0,0 3.93957502,2.80206 3.93957502,2.80206 M -9.8928137,58.0331 C -0.00766582,46.579206 9.8774822,35.125312 16.099518,29.221164 22.321554,23.317017 24.880479,22.962616 26.174732,29.020099 27.468984,35.077581 27.498564,47.546945 22.3309,54.312188 17.163236,61.07743 6.7983312,62.138549 0.77536618,62.257893 -5.2475978,62.377238 -6.928619,61.554808 -8.60964,60.732379" /></g></svg>
