<?xml version="1.0" encoding="UTF-8" standalone="no"?>
<!-- Created with Inkscape (http://www.inkscape.org/) -->

<svg
   width="48"
   height="48"
   viewBox="0 0 48 48"
   version="1.1"
   id="svg1"
   xml:space="preserve"
   xmlns:xlink="http://www.w3.org/1999/xlink"
   xmlns="http://www.w3.org/2000/svg"
   xmlns:svg="http://www.w3.org/2000/svg"><defs
     id="defs1"><linearGradient
       id="swatch4"><stop
         style="stop-color:#fffd14;stop-opacity:1;"
         offset="0"
         id="stop4" /></linearGradient><filter
       style="color-interpolation-filters:sRGB"
       id="filter1"
       x="-0.11619848"
       y="-0.084347788"
       width="1.2317314"
       height="1.1685436"><feGaussianBlur
         stdDeviation="0.78484211"
         id="feGaussianBlur1" /></filter><filter
       style="color-interpolation-filters:sRGB"
       id="filter2"
       x="-0.041713907"
       y="-0.030187679"
       width="1.0830487"
       height="1.0602882"><feGaussianBlur
         stdDeviation="0.12502345"
         id="feGaussianBlur2" /></filter><filter
       style="color-interpolation-filters:sRGB"
       id="filter4"
       x="-0.018453797"
       y="-0.013340673"
       width="1.0367186"
       height="1.0266376"><feGaussianBlur
         stdDeviation="0.031027393"
         id="feGaussianBlur4" /></filter></defs><use
     x="0"
     y="0"
     xlink:href="#g1"
     id="use1"
     style="fill:none;stroke:#447821;stroke-width:3.5;stroke-linecap:round;stroke-linejoin:round;stroke-dasharray:none;stroke-opacity:1;filter:url(#filter1)" /><use
     x="0"
     y="0"
     xlink:href="#g1"
     id="use2"
     style="mix-blend-mode:normal;stroke:#5aa02c;stroke-width:2;stroke-linecap:round;stroke-linejoin:round;stroke-dasharray:none;filter:url(#filter2)" /><use
     x="0"
     y="0"
     xlink:href="#g1"
     id="use3"
     style="mix-blend-mode:normal;stroke:#71c837;stroke-linecap:round;stroke-linejoin:round;filter:url(#filter4)" /><use
     x="0"
     y="0"
     xlink:href="#g1"
     id="use4"
     style="stroke:#ffffff;stroke-width:0.8;stroke-linecap:round;stroke-linejoin:round;stroke-dasharray:none;stroke-opacity:1" /><g
     id="g1"><path
       style="fill:none"
       d="m 19.581019,13.882092 c -0.856689,0.345091 -1.355565,1.459694 -2.070338,3.703169 -0.714772,2.243475 -1.645442,5.615822 -3.547429,10.079045 -1.901987,4.463223 -4.7752919,10.01732 -3.347632,13.474072 1.42766,3.456752 7.156283,4.816159 11.417815,5.26133 4.261531,0.44517 7.055966,-0.0239 9.442449,-1.128645 2.386482,-1.10475 4.365009,-2.845181 5.071925,-5.680952 0.706916,-2.835771 0.142219,-6.76688 -1.41247,-9.675979 -1.554688,-2.909099 -4.094718,-4.792741 -6.888958,-7.831404 -2.79424,-3.038664 -5.290516,-6.477579 -4.893462,-7.046869 0.397054,-0.569289 3.071512,1.745468 5.613138,3.817323 2.541626,2.071855 6.481306,4.462814 8.188545,5.410191 1.70724,0.947377 3.118363,1.11904 3.100581,0.108278 -0.01778,-1.010763 -1.151494,-4.163288 -4.096404,-5.859546 -2.944911,-1.696258 -10.858504,-3.78398 -11.692902,-5.42832 -0.834398,-1.64434 3.958886,-3.9901228 6.110861,-5.5951149 2.151975,-1.604992 2.204232,-3.7751192 1.500944,-3.8989406 -0.703289,-0.1238214 -3.764008,-0.512069 -5.321359,1.1749135 -1.557351,1.6869825 -2.70271,5.583433 -3.932046,7.380098 -1.229337,1.796665 -2.386569,1.39226 -3.243258,1.737351 z"
       id="path3"
       transform="translate(-1.9918741,-0.073679)" /></g></svg>
