<?xml version="1.0" encoding="UTF-8" standalone="no"?>
<!-- Created with Inkscape (http://www.inkscape.org/) -->

<svg
   width="48"
   height="48"
   viewBox="0 0 48 48"
   version="1.1"
   id="svg1"
   xmlns:xlink="http://www.w3.org/1999/xlink"
   xmlns="http://www.w3.org/2000/svg"
   xmlns:svg="http://www.w3.org/2000/svg">
  <defs
     id="defs1">
    <linearGradient
       id="linearGradient83">
      <stop
         style="stop-color:#5fe700;stop-opacity:1;"
         offset="0.34274906"
         id="stop83" />
      <stop
         style="stop-color:#72f9e2;stop-opacity:1;"
         offset="1"
         id="stop84" />
    </linearGradient>
    <filter
       style="color-interpolation-filters:sRGB"
       id="filter81"
       x="-0.045459785"
       y="-0.038395836"
       width="1.0912807"
       height="1.0767415">
      <feGaussianBlur
         stdDeviation="0.42575828"
         id="feGaussianBlur81" />
    </filter>
    <filter
       style="color-interpolation-filters:sRGB"
       id="filter82"
       x="-0.14110046"
       y="-0.1527401"
       width="1.2821397"
       height="1.305484">
      <feGaussianBlur
         stdDeviation="1.7099668"
         id="feGaussianBlur82" />
    </filter>
    <filter
       style="color-interpolation-filters:sRGB"
       id="filter83"
       x="-0.42626828"
       y="-0.46144581"
       width="1.8524753"
       height="1.9228955">
      <feGaussianBlur
         stdDeviation="4.7376697"
         id="feGaussianBlur83" />
    </filter>
    <linearGradient
       xlink:href="#linearGradient83"
       id="linearGradient84"
       x1="-7.0866532"
       y1="22.441263"
       x2="57.291803"
       y2="22.441263"
       gradientUnits="userSpaceOnUse"
       gradientTransform="translate(-17.988841,11.267419)" />
  </defs>
  <g
     id="layer1">
    <rect
       style="opacity:1;fill:#000000;fill-opacity:1;stroke:#000000;stroke-width:1;stroke-linejoin:miter;stroke-dasharray:none;stroke-opacity:1"
       id="rect81"
       width="63.378456"
       height="65.110596"
       x="-6.5866532"
       y="-10.114035" />
    <use
       x="0"
       y="0"
       xlink:href="#use82"
       id="use83"
       style="filter:url(#filter83)" />
    <use
       x="0"
       y="0"
       xlink:href="#use81"
       id="use82"
       style="filter:url(#filter82)" />
    <use
       x="0"
       y="0"
       xlink:href="#g81"
       id="use81"
       style="filter:url(#filter81);stroke-width:1;stroke-dasharray:none" />
    <g
       id="g81">
      <path
         style="opacity:1;fill:none;fill-opacity:1;stroke:#ffffff;stroke-width:1.3;stroke-dasharray:none;stroke-opacity:1"
         d="m 23.858683,13.276228 c 0.319758,-2.297868 1.317578,-4.4971715 2.836134,-6.2511474 1.518557,-1.7539759 3.55239,-3.0563196 5.780829,-3.7016919 0.288379,-0.083517 0.584753,-0.1568531 0.884785,-0.1459726 0.150015,0.00544 0.299969,0.0323 0.439481,0.087714 0.139512,0.055414 0.268427,0.1399545 0.368424,0.2519143 0.09745,0.1091095 0.166116,0.2429749 0.202503,0.38467 0.03639,0.1416951 0.04083,0.2909988 0.01766,0.4354449 -0.04634,0.288892 -0.202023,0.5532686 -0.407431,0.7616284 -0.410816,0.4167195 -0.99088,0.6075511 -1.538388,0.814095 -3.599508,1.357892 -6.694103,4.0124318 -8.583999,7.3633455 z"
         id="path8"
         transform="translate(-1.70391,-0.98923774)" />
      <path
         style="opacity:1;fill:none;fill-opacity:1;stroke:#ffffff;stroke-width:1.3;stroke-linejoin:miter;stroke-dasharray:none;stroke-opacity:1"
         d="m 38.747738,20.108458 c -3.149653,-3.156902 -9.99909,-9.662452 -14.990882,-8.74469 2.407189,2.481074 3.916576,5.447756 6.443224,7.844077 1.561123,1.480608 3.301829,2.670386 5.214473,3.647253 0.896323,0.457787 1.815282,0.855525 2.763356,1.194426 0.452848,0.161875 3.184799,0.699436 3.184799,0.699436 -0.800908,-1.317055 -1.527399,-3.550424 -2.61497,-4.640502 z"
         id="path9" />
      <path
         style="fill:none;stroke:#ffffff;stroke-width:1.3;stroke-dasharray:none"
         d="m 23.849125,14.879832 c -1.458324,-1.475944 -2.750382,-0.919749 -3.743095,-0.3183 -0.992714,0.601449 -1.686083,1.248153 -2.498102,3.257679 -0.812019,2.009525 -1.742689,5.381872 -3.644676,9.845095 -1.901987,4.463223 -4.7752919,10.01732 -3.347632,13.474072 1.42766,3.456752 7.156283,4.816159 11.417815,5.26133 4.261531,0.44517 7.055966,-0.0239 9.442449,-1.128645 2.386482,-1.10475 4.365009,-2.845181 5.071925,-5.680952 0.706916,-2.835771 0.142219,-6.76688 -1.41247,-9.675979 -1.554688,-2.909099 -4.094718,-4.792741 -6.172253,-7.4717 -2.077536,-2.678959 -3.655636,-6.086656 -5.113961,-7.5626 z"
         id="path3"
         transform="translate(-0.31820641,-1.1167346)" />
    </g>
    <rect
       style="display:inline;opacity:1;mix-blend-mode:overlay;fill:url(#linearGradient84);stroke:none;stroke-width:1;stroke-linejoin:miter;stroke-dasharray:none;stroke-opacity:1"
       id="rect83"
       width="63.378456"
       height="65.110596"
       x="-24.575493"
       y="1.1533833"
       transform="rotate(-31.890818)" />
  </g>
</svg>
