<?xml version="1.0" encoding="UTF-8" standalone="no"?>
<!-- Created with Inkscape (http://www.inkscape.org/) -->

<svg
   width="48"
   height="48"
   viewBox="0 0 48 48"
   version="1.1"
   id="svg1"
   xml:space="preserve"
   xmlns:xlink="http://www.w3.org/1999/xlink"
   xmlns="http://www.w3.org/2000/svg"
   xmlns:svg="http://www.w3.org/2000/svg"><defs
     id="defs1"><linearGradient
       id="swatch4"><stop
         style="stop-color:#fffd14;stop-opacity:1;"
         offset="0"
         id="stop4" /></linearGradient><filter
       style="color-interpolation-filters:sRGB"
       id="filter1"
       x="-0.15240471"
       y="-0.14189064"
       width="1.3048095"
       height="1.2837811"><feGaussianBlur
         stdDeviation="1.1014531"
         id="feGaussianBlur1" /></filter><filter
       style="color-interpolation-filters:sRGB"
       id="filter2"
       x="-0.052901208"
       y="-0.049291726"
       width="1.1058025"
       height="1.0985833"><feGaussianBlur
         stdDeviation="0.17578723"
         id="feGaussianBlur2" /></filter><filter
       style="color-interpolation-filters:sRGB"
       id="filter3"
       x="-0.027215912"
       y="-0.025373425"
       width="1.0544319"
       height="1.0507468"><feGaussianBlur
         stdDeviation="0.015820851"
         id="feGaussianBlur3" /></filter></defs><use
     x="0"
     y="0"
     xlink:href="#g1"
     id="use1"
     style="stroke:#d40000;filter:url(#filter1);stroke-width:5.6999999;stroke-dasharray:none;stroke-opacity:1;fill:none;stroke-linejoin:round;stroke-linecap:round" /><use
     x="0"
     y="0"
     xlink:href="#path1-5"
     id="use2"
     style="stroke:#ff2a2a;stroke-width:3.1;stroke-dasharray:none;filter:url(#filter2);fill:#ff2a2a;stroke-linejoin:round;stroke-linecap:round" /><use
     x="0"
     y="0"
     xlink:href="#path1-5"
     id="use3"
     style="stroke:#ff5555;stroke-width:2;stroke-dasharray:none;filter:url(#filter3);stroke-linecap:round;stroke-linejoin:round" /><use
     x="0"
     y="0"
     xlink:href="#path1-5"
     id="use4"
     style="fill:none;stroke:#ffffff;stroke-linejoin:round;stroke-linecap:round;stroke-width:1;stroke-dasharray:none;stroke-opacity:1" /><g
     id="g1"><path
       style="display:inline;fill:none;paint-order:normal"
       d="m 43.495491,40.796656 h 7.951413 c 0,0 -0.75859,-6.589202 4.257085,-5.245256 0,0 8.060041,3.560083 14.189864,0.159635 0,0 -5.981703,4.576547 -11.155129,12.271612 -4.19038,6.232861 -7.781191,15.312312 -7.781191,19.333738 l 15.194369,0.368146 c 0,0 -1.753942,-6.38794 4.157255,-18.058887 3.028765,-5.979933 10.388642,-12.986719 11.478532,-20.531076 v -2.196701 h -5.060101 c 0,0 -1.001197,2.29176 -8.294466,2.244912 0,0 -14.400257,-4.629024 -18.224124,-0.805157 v -1.752247 h -6.742685 c 0.05,4.177018 0.02918,10.03405 0.02918,14.211281 z"
       id="path1-5"
       transform="matrix(0.88400258,0,0,0.88660451,-29.916666,-17.149484)" /></g></svg>
